<mxfile host="app.diagrams.net" modified="2023-07-10T19:36:46.125Z" agent="Mozilla/5.0 (Windows NT 10.0; Win64; x64) AppleWebKit/537.36 (KHTML, like Gecko) Chrome/114.0.0.0 Safari/537.36" etag="8rhMvLHerIuiIsFo86be" version="21.5.2" type="device">
  <diagram name="PÃ¡gina-1" id="0nNz_oQkRz33ehpuNQnP">
    <mxGraphModel dx="1308" dy="1022" grid="1" gridSize="10" guides="1" tooltips="1" connect="1" arrows="1" fold="1" page="1" pageScale="1" pageWidth="980" pageHeight="690" math="0" shadow="0">
      <root>
        <mxCell id="0" />
        <mxCell id="1" parent="0" />
        <mxCell id="SQydUdG0Rwlj8UAFUPHJ-2" value="Crear cuenta Bancaria" style="ellipse;whiteSpace=wrap;html=1;" vertex="1" parent="1">
          <mxGeometry x="250" y="20" width="140" height="70" as="geometry" />
        </mxCell>
        <mxCell id="SQydUdG0Rwlj8UAFUPHJ-4" value="Crear nuevo&lt;br&gt;Producto Credito" style="ellipse;whiteSpace=wrap;html=1;" vertex="1" parent="1">
          <mxGeometry x="270" y="240" width="140" height="70" as="geometry" />
        </mxCell>
        <mxCell id="SQydUdG0Rwlj8UAFUPHJ-10" value="Crear Credito Personal" style="ellipse;whiteSpace=wrap;html=1;" vertex="1" parent="1">
          <mxGeometry x="170" y="360" width="140" height="70" as="geometry" />
        </mxCell>
        <mxCell id="SQydUdG0Rwlj8UAFUPHJ-11" value="Crear Credito Empresarial" style="ellipse;whiteSpace=wrap;html=1;" vertex="1" parent="1">
          <mxGeometry x="320" y="360" width="140" height="70" as="geometry" />
        </mxCell>
        <mxCell id="SQydUdG0Rwlj8UAFUPHJ-12" value="Crear Tarjeta Credito" style="ellipse;whiteSpace=wrap;html=1;" vertex="1" parent="1">
          <mxGeometry x="470" y="360" width="140" height="70" as="geometry" />
        </mxCell>
        <mxCell id="SQydUdG0Rwlj8UAFUPHJ-16" value="Crear Cuenta&amp;nbsp; Ahorro" style="ellipse;whiteSpace=wrap;html=1;" vertex="1" parent="1">
          <mxGeometry x="170" y="150" width="140" height="70" as="geometry" />
        </mxCell>
        <mxCell id="SQydUdG0Rwlj8UAFUPHJ-17" value="Crear Cuenta Corriente" style="ellipse;whiteSpace=wrap;html=1;" vertex="1" parent="1">
          <mxGeometry x="320" y="150" width="140" height="70" as="geometry" />
        </mxCell>
        <mxCell id="SQydUdG0Rwlj8UAFUPHJ-18" value="Crear Cuenta Plazo Fijo" style="ellipse;whiteSpace=wrap;html=1;" vertex="1" parent="1">
          <mxGeometry x="470" y="150" width="140" height="70" as="geometry" />
        </mxCell>
        <mxCell id="SQydUdG0Rwlj8UAFUPHJ-24" value="" style="endArrow=open;startArrow=none;endFill=0;startFill=0;endSize=8;html=1;verticalAlign=bottom;labelBackgroundColor=none;strokeWidth=1;rounded=0;exitX=1;exitY=0.3333333333333333;exitDx=0;exitDy=0;exitPerimeter=0;entryX=0;entryY=0.5;entryDx=0;entryDy=0;" edge="1" parent="1" target="SQydUdG0Rwlj8UAFUPHJ-4">
          <mxGeometry width="160" relative="1" as="geometry">
            <mxPoint x="60" y="220" as="sourcePoint" />
            <mxPoint x="260" y="290" as="targetPoint" />
          </mxGeometry>
        </mxCell>
        <mxCell id="SQydUdG0Rwlj8UAFUPHJ-25" value="" style="endArrow=open;startArrow=none;endFill=0;startFill=0;endSize=8;html=1;verticalAlign=bottom;labelBackgroundColor=none;strokeWidth=1;rounded=0;entryX=-0.014;entryY=0.7;entryDx=0;entryDy=0;entryPerimeter=0;exitX=1;exitY=0.3333333333333333;exitDx=0;exitDy=0;exitPerimeter=0;" edge="1" parent="1" target="SQydUdG0Rwlj8UAFUPHJ-2">
          <mxGeometry width="160" relative="1" as="geometry">
            <mxPoint x="60" y="220" as="sourcePoint" />
            <mxPoint x="150" y="340" as="targetPoint" />
          </mxGeometry>
        </mxCell>
        <mxCell id="SQydUdG0Rwlj8UAFUPHJ-26" value="Cliente - Validar Tipo Cliente" style="ellipse;whiteSpace=wrap;html=1;" vertex="1" parent="1">
          <mxGeometry x="680" y="200" width="140" height="70" as="geometry" />
        </mxCell>
        <mxCell id="SQydUdG0Rwlj8UAFUPHJ-31" value="Use" style="endArrow=open;endSize=12;dashed=1;html=1;rounded=0;exitX=1;exitY=0.386;exitDx=0;exitDy=0;exitPerimeter=0;entryX=0.157;entryY=0.057;entryDx=0;entryDy=0;entryPerimeter=0;" edge="1" parent="1" source="SQydUdG0Rwlj8UAFUPHJ-2" target="SQydUdG0Rwlj8UAFUPHJ-26">
          <mxGeometry width="160" relative="1" as="geometry">
            <mxPoint x="330" y="580" as="sourcePoint" />
            <mxPoint x="490" y="580" as="targetPoint" />
          </mxGeometry>
        </mxCell>
        <mxCell id="SQydUdG0Rwlj8UAFUPHJ-32" value="Use" style="endArrow=open;endSize=12;dashed=1;html=1;rounded=0;entryX=0.35;entryY=0.957;entryDx=0;entryDy=0;entryPerimeter=0;exitX=1;exitY=0.5;exitDx=0;exitDy=0;" edge="1" parent="1" source="SQydUdG0Rwlj8UAFUPHJ-4" target="SQydUdG0Rwlj8UAFUPHJ-26">
          <mxGeometry width="160" relative="1" as="geometry">
            <mxPoint x="340" y="420" as="sourcePoint" />
            <mxPoint x="500" y="420" as="targetPoint" />
          </mxGeometry>
        </mxCell>
        <mxCell id="SQydUdG0Rwlj8UAFUPHJ-33" value="Extends" style="endArrow=block;endSize=16;endFill=0;html=1;rounded=0;exitX=0.657;exitY=-0.029;exitDx=0;exitDy=0;exitPerimeter=0;entryX=0.279;entryY=1;entryDx=0;entryDy=0;entryPerimeter=0;" edge="1" parent="1" source="SQydUdG0Rwlj8UAFUPHJ-10" target="SQydUdG0Rwlj8UAFUPHJ-4">
          <mxGeometry width="160" relative="1" as="geometry">
            <mxPoint x="340" y="420" as="sourcePoint" />
            <mxPoint x="500" y="420" as="targetPoint" />
          </mxGeometry>
        </mxCell>
        <mxCell id="SQydUdG0Rwlj8UAFUPHJ-34" value="Extends" style="endArrow=block;endSize=16;endFill=0;html=1;rounded=0;exitX=0.386;exitY=0.014;exitDx=0;exitDy=0;exitPerimeter=0;entryX=0.5;entryY=1;entryDx=0;entryDy=0;" edge="1" parent="1" source="SQydUdG0Rwlj8UAFUPHJ-11" target="SQydUdG0Rwlj8UAFUPHJ-4">
          <mxGeometry width="160" relative="1" as="geometry">
            <mxPoint x="350" y="410" as="sourcePoint" />
            <mxPoint x="450" y="610" as="targetPoint" />
          </mxGeometry>
        </mxCell>
        <mxCell id="SQydUdG0Rwlj8UAFUPHJ-35" value="Extends" style="endArrow=block;endSize=16;endFill=0;html=1;rounded=0;entryX=0.929;entryY=0.857;entryDx=0;entryDy=0;entryPerimeter=0;" edge="1" parent="1" source="SQydUdG0Rwlj8UAFUPHJ-12" target="SQydUdG0Rwlj8UAFUPHJ-4">
          <mxGeometry width="160" relative="1" as="geometry">
            <mxPoint x="340" y="420" as="sourcePoint" />
            <mxPoint x="500" y="420" as="targetPoint" />
          </mxGeometry>
        </mxCell>
        <mxCell id="SQydUdG0Rwlj8UAFUPHJ-36" value="Extends" style="endArrow=block;endSize=16;endFill=0;html=1;rounded=0;exitX=0.571;exitY=-0.043;exitDx=0;exitDy=0;exitPerimeter=0;entryX=0.35;entryY=1.029;entryDx=0;entryDy=0;entryPerimeter=0;" edge="1" parent="1" source="SQydUdG0Rwlj8UAFUPHJ-16" target="SQydUdG0Rwlj8UAFUPHJ-2">
          <mxGeometry width="160" relative="1" as="geometry">
            <mxPoint x="340" y="420" as="sourcePoint" />
            <mxPoint x="310" y="100" as="targetPoint" />
          </mxGeometry>
        </mxCell>
        <mxCell id="SQydUdG0Rwlj8UAFUPHJ-37" value="Extends" style="endArrow=block;endSize=16;endFill=0;html=1;rounded=0;exitX=0.5;exitY=0;exitDx=0;exitDy=0;entryX=0.671;entryY=1.029;entryDx=0;entryDy=0;entryPerimeter=0;" edge="1" parent="1" source="SQydUdG0Rwlj8UAFUPHJ-17" target="SQydUdG0Rwlj8UAFUPHJ-2">
          <mxGeometry width="160" relative="1" as="geometry">
            <mxPoint x="570" y="380" as="sourcePoint" />
            <mxPoint x="730" y="380" as="targetPoint" />
          </mxGeometry>
        </mxCell>
        <mxCell id="SQydUdG0Rwlj8UAFUPHJ-38" value="Extends" style="endArrow=block;endSize=16;endFill=0;html=1;rounded=0;entryX=1;entryY=1;entryDx=0;entryDy=0;" edge="1" parent="1" source="SQydUdG0Rwlj8UAFUPHJ-18" target="SQydUdG0Rwlj8UAFUPHJ-2">
          <mxGeometry width="160" relative="1" as="geometry">
            <mxPoint x="460" y="600" as="sourcePoint" />
            <mxPoint x="620" y="600" as="targetPoint" />
          </mxGeometry>
        </mxCell>
        <mxCell id="SQydUdG0Rwlj8UAFUPHJ-40" value="Consultar Saldos cuentas y tarjetas credito" style="ellipse;whiteSpace=wrap;html=1;" vertex="1" parent="1">
          <mxGeometry x="170" y="500" width="140" height="70" as="geometry" />
        </mxCell>
        <mxCell id="SQydUdG0Rwlj8UAFUPHJ-47" value="Consultar Movimientos de un producto Bancario" style="ellipse;whiteSpace=wrap;html=1;" vertex="1" parent="1">
          <mxGeometry x="170" y="590" width="160" height="80" as="geometry" />
        </mxCell>
        <mxCell id="SQydUdG0Rwlj8UAFUPHJ-48" value="Realizar Abonos y Retiros Cuentas Bancarias" style="ellipse;whiteSpace=wrap;html=1;" vertex="1" parent="1">
          <mxGeometry x="690" y="410" width="160" height="90" as="geometry" />
        </mxCell>
        <mxCell id="SQydUdG0Rwlj8UAFUPHJ-49" value="Realizar&amp;nbsp; Consumos Tarjetas Creditos&amp;nbsp;" style="ellipse;whiteSpace=wrap;html=1;" vertex="1" parent="1">
          <mxGeometry x="685" y="520" width="140" height="70" as="geometry" />
        </mxCell>
        <mxCell id="SQydUdG0Rwlj8UAFUPHJ-50" value="Realizar&amp;nbsp; Pagos Tarjeta de Credito" style="ellipse;whiteSpace=wrap;html=1;" vertex="1" parent="1">
          <mxGeometry x="680" y="600" width="150" height="70" as="geometry" />
        </mxCell>
        <mxCell id="SQydUdG0Rwlj8UAFUPHJ-52" value="Use" style="endArrow=open;endSize=12;dashed=1;html=1;rounded=0;exitX=1;exitY=0.5;exitDx=0;exitDy=0;entryX=-0.012;entryY=0.622;entryDx=0;entryDy=0;entryPerimeter=0;" edge="1" parent="1" source="SQydUdG0Rwlj8UAFUPHJ-40" target="SQydUdG0Rwlj8UAFUPHJ-48">
          <mxGeometry width="160" relative="1" as="geometry">
            <mxPoint x="390" y="580" as="sourcePoint" />
            <mxPoint x="550" y="580" as="targetPoint" />
          </mxGeometry>
        </mxCell>
        <mxCell id="SQydUdG0Rwlj8UAFUPHJ-53" value="Use" style="endArrow=open;endSize=12;dashed=1;html=1;rounded=0;entryX=0;entryY=0.5;entryDx=0;entryDy=0;" edge="1" parent="1" target="SQydUdG0Rwlj8UAFUPHJ-49">
          <mxGeometry width="160" relative="1" as="geometry">
            <mxPoint x="310" y="540" as="sourcePoint" />
            <mxPoint x="540" y="560" as="targetPoint" />
          </mxGeometry>
        </mxCell>
        <mxCell id="SQydUdG0Rwlj8UAFUPHJ-54" value="Use" style="endArrow=open;endSize=12;dashed=1;html=1;rounded=0;entryX=0;entryY=0.5;entryDx=0;entryDy=0;" edge="1" parent="1" target="SQydUdG0Rwlj8UAFUPHJ-50">
          <mxGeometry width="160" relative="1" as="geometry">
            <mxPoint x="310" y="550" as="sourcePoint" />
            <mxPoint x="500" y="320" as="targetPoint" />
          </mxGeometry>
        </mxCell>
        <mxCell id="SQydUdG0Rwlj8UAFUPHJ-55" value="Use" style="endArrow=open;endSize=12;dashed=1;html=1;rounded=0;entryX=0.067;entryY=0.857;entryDx=0;entryDy=0;entryPerimeter=0;" edge="1" parent="1" source="SQydUdG0Rwlj8UAFUPHJ-47" target="SQydUdG0Rwlj8UAFUPHJ-50">
          <mxGeometry width="160" relative="1" as="geometry">
            <mxPoint x="340" y="320" as="sourcePoint" />
            <mxPoint x="500" y="320" as="targetPoint" />
          </mxGeometry>
        </mxCell>
        <mxCell id="SQydUdG0Rwlj8UAFUPHJ-56" value="Use" style="endArrow=open;endSize=12;dashed=1;html=1;rounded=0;exitX=1;exitY=0.5;exitDx=0;exitDy=0;" edge="1" parent="1" source="SQydUdG0Rwlj8UAFUPHJ-47">
          <mxGeometry width="160" relative="1" as="geometry">
            <mxPoint x="340" y="320" as="sourcePoint" />
            <mxPoint x="680" y="560" as="targetPoint" />
          </mxGeometry>
        </mxCell>
        <mxCell id="SQydUdG0Rwlj8UAFUPHJ-57" value="Use" style="endArrow=open;endSize=12;dashed=1;html=1;rounded=0;" edge="1" parent="1" source="SQydUdG0Rwlj8UAFUPHJ-47" target="SQydUdG0Rwlj8UAFUPHJ-48">
          <mxGeometry width="160" relative="1" as="geometry">
            <mxPoint x="340" y="320" as="sourcePoint" />
            <mxPoint x="500" y="320" as="targetPoint" />
          </mxGeometry>
        </mxCell>
        <mxCell id="SQydUdG0Rwlj8UAFUPHJ-69" value="Cliente" style="shape=umlActor;verticalLabelPosition=bottom;verticalAlign=top;html=1;" vertex="1" parent="1">
          <mxGeometry x="30" y="190" width="30" height="60" as="geometry" />
        </mxCell>
        <mxCell id="SQydUdG0Rwlj8UAFUPHJ-73" value="Sistema" style="shape=umlActor;verticalLabelPosition=bottom;verticalAlign=top;html=1;" vertex="1" parent="1">
          <mxGeometry x="30" y="540" width="30" height="60" as="geometry" />
        </mxCell>
        <mxCell id="SQydUdG0Rwlj8UAFUPHJ-75" value="" style="endArrow=open;startArrow=none;endFill=0;startFill=0;endSize=8;html=1;verticalAlign=bottom;labelBackgroundColor=none;strokeWidth=1;rounded=0;entryX=0;entryY=0.5;entryDx=0;entryDy=0;" edge="1" parent="1" target="SQydUdG0Rwlj8UAFUPHJ-40">
          <mxGeometry width="160" relative="1" as="geometry">
            <mxPoint x="70" y="570" as="sourcePoint" />
            <mxPoint x="220" y="470" as="targetPoint" />
          </mxGeometry>
        </mxCell>
        <mxCell id="SQydUdG0Rwlj8UAFUPHJ-76" value="" style="endArrow=open;startArrow=none;endFill=0;startFill=0;endSize=8;html=1;verticalAlign=bottom;labelBackgroundColor=none;strokeWidth=1;rounded=0;" edge="1" parent="1">
          <mxGeometry width="160" relative="1" as="geometry">
            <mxPoint x="70" y="580" as="sourcePoint" />
            <mxPoint x="160" y="620" as="targetPoint" />
          </mxGeometry>
        </mxCell>
      </root>
    </mxGraphModel>
  </diagram>
</mxfile>
